# xmcd CD database file
#
# Track frame offsets:
#	150
#	11092
#	28115
#	41837
#	53025
#	66987
#	83882
#	97000
#	115932
#	127472
#	142777
#	151742
#	168550
#
# Disc length: 2407 seconds
#
# Revision: 0
# Processed by: cddbd v1.5.1PL0 Copyright (c) Steve Scherf et al.
# Submitted via: CDex 1.51
#
DISCID=b409650d
DTITLE=Black Taxi - Saturday Street
DYEAR=1999
DGENRE=Jazz
TTITLE0=Banana
TTITLE1=Mr Greenaway
TTITLE2=Gone To Water
TTITLE3=Sleep
TTITLE4=Undressed Caressed
TTITLE5=Take Mine
TTITLE6=Don't Go Thru Town Dave
TTITLE7=Crazy Kind of Love
TTITLE8=The Kite
TTITLE9=Fashion
TTITLE10=Shoes
TTITLE11=Saturday Street
TTITLE12=Jubilation
EXTD=YEAR: 1999
EXTT0=
EXTT1=
EXTT2=
EXTT3=
EXTT4=
EXTT5=
EXTT6=
EXTT7=
EXTT8=
EXTT9=
EXTT10=
EXTT11=
EXTT12=
PLAYORDER=
